# xmcd
#
# Track frame offsets: 
#        150
#        3730
#        27572
#        46382
#        76255
#        88927
#        109705
#        133952
#        155522
#        174107
#        196617
#        219390
#        233102
#        253637
#        275870
#
# Disc length: 3973 seconds
#
# Revision: 0
# Processed by: cddbd v1.5.1PL2 Copyright (c) Steve Scherf et al.
# Submitted via: ExactAudioCopy v0.95b4
#
DISCID=cc0f830f
DTITLE=ZZ Top - Live USA 1994
DYEAR=1994
DGENRE=Blues
TTITLE0=Intro
TTITLE1=World of swirl
TTITLE2=Pincushion
TTITLE3=Breakaway
TTITLE4=Waiting on the bus
TTITLE5=Jesus just left Chicago
TTITLE6=I'm bad, I'm nationwide
TTITLE7=Cheep sunglasses
TTITLE8=Tell it to me, baby
TTITLE9=Fool for your stockings
TTITLE10=Sleeping bag
TTITLE11=She loves my automobile
TTITLE12=Antenna head
TTITLE13=Legs
TTITLE14=Gimme all your lovin'
EXTD=
EXTT0=
EXTT1=
EXTT2=
EXTT3=
EXTT4=
EXTT5=
EXTT6=
EXTT7=
EXTT8=
EXTT9=
EXTT10=
EXTT11=
EXTT12=
EXTT13=
EXTT14=
PLAYORDER=
